<svg width="389" height="133" viewBox="0 0 389 133" fill="none" xmlns="http://www.w3.org/2000/svg">
<path d="M50.0283 14.51L91.7588 54.7088L95.2783 51.1941L50.5283 7.01001L5.02832 51.51L6.02832 126.01L95.2783 127.01V120.985H11.3118V53.51L50.0283 14.51Z" fill="#E6C068" stroke="#E6C068" stroke-width="10"/>
<path d="M27.6283 105.01V104.29L30.0683 103.85C31.1617 103.637 31.855 103.397 32.1483 103.13C32.4683 102.863 32.6283 102.317 32.6283 101.49V81.61C32.6283 80.7567 32.4683 80.1967 32.1483 79.93C31.855 79.6633 31.1617 79.4367 30.0683 79.25L27.6283 78.81V78.09H40.7483C42.5883 78.09 44.175 78.3567 45.5083 78.89C46.8683 79.3967 47.9083 80.1167 48.6283 81.05C49.375 81.9833 49.7483 83.0767 49.7483 84.33C49.7483 86.01 49.1217 87.29 47.8683 88.17C46.6417 89.05 45.0817 89.6633 43.1883 90.01V90.09C44.4417 90.25 45.6817 90.5967 46.9083 91.13C48.1617 91.6633 49.1883 92.4233 49.9883 93.41C50.815 94.37 51.2283 95.5967 51.2283 97.09C51.2283 98.8767 50.7217 100.357 49.7083 101.53C48.695 102.703 47.335 103.583 45.6283 104.17C43.9217 104.73 42.0283 105.01 39.9483 105.01H27.6283ZM39.1483 104.05H40.1083C41.335 104.05 42.4683 103.797 43.5083 103.29C44.575 102.757 45.4417 101.997 46.1083 101.01C46.775 99.9967 47.1083 98.7967 47.1083 97.41C47.1083 96.1567 46.8283 95.0367 46.2683 94.05C45.7083 93.0367 44.9083 92.2367 43.8683 91.65C42.8283 91.0367 41.575 90.73 40.1083 90.73H36.1883V101.41C36.1883 102.29 36.3883 102.943 36.7883 103.37C37.1883 103.797 37.975 104.023 39.1483 104.05ZM36.1883 89.69H40.3483C42.1083 89.69 43.495 89.17 44.5083 88.13C45.5217 87.09 46.0283 85.8633 46.0283 84.45C46.0283 82.7167 45.5083 81.3833 44.4683 80.45C43.455 79.5167 41.975 79.05 40.0283 79.05H36.1883V89.69ZM69.6808 105.49C68.2942 105.49 67.0008 105.277 65.8008 104.85C64.6008 104.397 63.5475 103.757 62.6408 102.93C61.7608 102.077 61.0675 101.05 60.5608 99.85C60.0808 98.65 59.8408 97.29 59.8408 95.77V81.61C59.8408 80.7567 59.6808 80.1967 59.3608 79.93C59.0675 79.6633 58.3742 79.4367 57.2808 79.25L54.8408 78.81V78.09H68.4408V78.81L66.0008 79.25C64.9075 79.4367 64.2008 79.6633 63.8808 79.93C63.5875 80.1967 63.4408 80.7567 63.4408 81.61V95.73C63.4408 98.2367 64.1075 100.17 65.4408 101.53C66.8008 102.863 68.6008 103.53 70.8408 103.53C72.4675 103.53 73.8275 103.21 74.9208 102.57C76.0408 101.93 76.8942 101.023 77.4808 99.85C78.0675 98.65 78.3608 97.2233 78.3608 95.57V81.89C78.3608 81.0367 78.2008 80.4367 77.8808 80.09C77.5875 79.7167 76.8942 79.4367 75.8008 79.25L73.3608 78.81V78.09H84.5208V78.81L82.0808 79.25C80.9875 79.4367 80.2808 79.69 79.9608 80.01C79.6675 80.33 79.5208 80.9167 79.5208 81.77V100.61C78.9875 100.61 78.5208 100.797 78.1208 101.17C77.7208 101.543 77.2675 101.983 76.7608 102.49C76.3342 102.943 75.8142 103.41 75.2008 103.89C74.6142 104.343 73.8675 104.717 72.9608 105.01C72.0808 105.33 70.9875 105.49 69.6808 105.49ZM87.1205 105.01V104.29L89.5605 103.85C90.6538 103.637 91.3472 103.397 91.6405 103.13C91.9605 102.863 92.1205 102.317 92.1205 101.49V81.61C92.1205 80.7567 91.9605 80.1967 91.6405 79.93C91.3472 79.6633 90.6538 79.4367 89.5605 79.25L87.1205 78.81V78.09H100.721V78.81L98.2805 79.25C97.1872 79.4367 96.4805 79.6633 96.1605 79.93C95.8672 80.1967 95.7205 80.7567 95.7205 81.61V101.49C95.7205 102.317 95.8672 102.863 96.1605 103.13C96.4805 103.397 97.1872 103.637 98.2805 103.85L100.721 104.29V105.01H87.1205ZM103.917 105.01V104.29L106.357 103.85C107.451 103.637 108.144 103.397 108.437 103.13C108.757 102.863 108.917 102.317 108.917 101.49V81.61C108.917 80.7567 108.757 80.1967 108.437 79.93C108.144 79.6633 107.451 79.4367 106.357 79.25L103.917 78.81V78.09H117.517V78.81L115.077 79.25C113.984 79.4367 113.277 79.6633 112.957 79.93C112.664 80.1967 112.517 80.7567 112.517 81.61V101.41C112.517 102.397 112.717 103.077 113.117 103.45C113.544 103.823 114.397 104.01 115.677 104.01H121.317C122.411 104.01 123.424 103.797 124.357 103.37C125.291 102.943 126.091 102.41 126.757 101.77C127.451 101.103 127.957 100.463 128.277 99.85L129.317 97.81H130.077C129.731 99.0367 129.477 100.29 129.317 101.57C129.157 102.823 129.064 103.97 129.037 105.01H103.917ZM132.081 105.01V104.29L134.521 103.85C135.615 103.637 136.308 103.397 136.601 103.13C136.921 102.863 137.081 102.317 137.081 101.49V81.61C137.081 80.7567 136.921 80.1967 136.601 79.93C136.308 79.6633 135.615 79.4367 134.521 79.25L132.081 78.81V78.09H144.921C147.428 78.09 149.668 78.4633 151.641 79.21C153.615 79.93 155.281 80.93 156.641 82.21C158.028 83.4633 159.081 84.9033 159.801 86.53C160.521 88.1567 160.881 89.85 160.881 91.61C160.881 93.7167 160.468 95.61 159.641 97.29C158.841 98.9433 157.708 100.343 156.241 101.49C154.801 102.637 153.095 103.517 151.121 104.13C149.175 104.717 147.041 105.01 144.721 105.01H132.081ZM144.721 104.05C146.988 104.05 149.041 103.583 150.881 102.65C152.721 101.69 154.188 100.29 155.281 98.45C156.375 96.5833 156.921 94.3033 156.921 91.61C156.921 88.8633 156.401 86.57 155.361 84.73C154.348 82.8633 152.868 81.45 150.921 80.49C149.001 79.53 146.681 79.05 143.961 79.05H140.681V101.89C140.681 102.61 140.948 103.143 141.481 103.49C142.015 103.837 143.095 104.023 144.721 104.05ZM164.269 105.01V104.29L166.709 103.85C167.802 103.637 168.496 103.397 168.789 103.13C169.109 102.863 169.269 102.317 169.269 101.49V81.61C169.269 80.7567 169.109 80.1967 168.789 79.93C168.496 79.6633 167.802 79.4367 166.709 79.25L164.269 78.81V78.09H177.869V78.81L175.429 79.25C174.336 79.4367 173.629 79.6633 173.309 79.93C173.016 80.1967 172.869 80.7567 172.869 81.61V101.49C172.869 102.317 173.016 102.863 173.309 103.13C173.629 103.397 174.336 103.637 175.429 103.85L177.869 104.29V105.01H164.269ZM207.306 105.65L187.266 82.77V101.21C187.266 102.037 187.412 102.637 187.706 103.01C188.026 103.357 188.732 103.637 189.826 103.85L192.266 104.29V105.01H181.106V104.29L183.546 103.85C184.639 103.637 185.332 103.37 185.626 103.05C185.946 102.73 186.106 102.157 186.106 101.33V81.89C186.106 81.2767 186.052 80.81 185.946 80.49C185.839 80.1433 185.559 79.8767 185.106 79.69C184.679 79.5033 183.959 79.3167 182.946 79.13L181.066 78.77V78.09H187.906L206.586 98.89L206.546 81.89C206.546 81.0367 206.386 80.4367 206.066 80.09C205.772 79.7167 205.079 79.4367 203.986 79.25L201.546 78.81V78.09H212.706V78.81L210.266 79.25C209.172 79.4367 208.466 79.69 208.146 80.01C207.852 80.33 207.706 80.9167 207.706 81.77V105.65H207.306ZM228.942 105.49C226.862 105.49 224.956 105.143 223.222 104.45C221.489 103.73 219.982 102.743 218.702 101.49C217.449 100.21 216.476 98.73 215.782 97.05C215.089 95.3433 214.742 93.5033 214.742 91.53C214.742 89.5033 215.142 87.65 215.942 85.97C216.742 84.29 217.809 82.8367 219.142 81.61C220.502 80.3833 222.036 79.4367 223.742 78.77C225.449 78.1033 227.222 77.77 229.062 77.77C230.342 77.77 231.449 77.8633 232.382 78.05C233.316 78.21 234.129 78.41 234.822 78.65C235.542 78.89 236.196 79.1033 236.782 79.29C237.369 79.45 237.956 79.53 238.542 79.53C238.862 79.53 239.169 79.5033 239.462 79.45C239.756 79.37 239.956 79.3167 240.062 79.29L240.142 79.37C240.089 79.5567 240.036 79.85 239.982 80.25C239.956 80.6233 239.942 80.9567 239.942 81.25C239.942 81.8633 239.982 82.53 240.062 83.25C240.142 83.97 240.236 84.61 240.342 85.17C240.449 85.73 240.542 86.1033 240.622 86.29H239.822C239.396 85.1433 238.676 83.9967 237.662 82.85C236.649 81.7033 235.409 80.7433 233.942 79.97C232.502 79.17 230.876 78.77 229.062 78.77C227.596 78.77 226.236 79.1167 224.982 79.81C223.729 80.5033 222.622 81.45 221.662 82.65C220.729 83.8233 219.996 85.17 219.462 86.69C218.929 88.21 218.662 89.7967 218.662 91.45C218.662 92.89 218.862 94.3833 219.262 95.93C219.662 97.45 220.276 98.8633 221.102 100.17C221.956 101.477 223.022 102.53 224.302 103.33C225.609 104.13 227.156 104.53 228.942 104.53C230.169 104.53 231.436 104.29 232.742 103.81C234.076 103.33 235.156 102.69 235.982 101.89V96.45C235.982 95.5967 235.822 95.0367 235.502 94.77C235.209 94.5033 234.516 94.2767 233.422 94.09L230.982 93.65V92.93H244.422V93.65L242.342 94.01C241.249 94.1967 240.542 94.4233 240.222 94.69C239.929 94.9567 239.782 95.5167 239.782 96.37V104.01L239.582 104.13C239.396 104.077 239.142 104.037 238.822 104.01C238.529 103.983 238.236 103.97 237.942 103.97C237.516 103.97 236.982 104.05 236.342 104.21C235.729 104.343 235.049 104.503 234.302 104.69C233.476 104.877 232.609 105.05 231.702 105.21C230.796 105.397 229.876 105.49 228.942 105.49ZM274.034 105.01V104.29L276.474 103.85C277.567 103.637 278.261 103.397 278.554 103.13C278.874 102.863 279.034 102.317 279.034 101.49V81.61C279.034 80.7567 278.874 80.1967 278.554 79.93C278.261 79.6633 277.567 79.4367 276.474 79.25L274.034 78.81V78.09H287.634V78.81L285.194 79.25C284.101 79.4367 283.394 79.6633 283.074 79.93C282.781 80.1967 282.634 80.7567 282.634 81.61V101.49C282.634 102.317 282.781 102.863 283.074 103.13C283.394 103.397 284.101 103.637 285.194 103.85L287.634 104.29V105.01H274.034ZM257.394 105.01V104.29L259.834 103.85C260.927 103.637 261.621 103.397 261.914 103.13C262.234 102.863 262.394 102.317 262.394 101.49V81.61C262.394 80.7567 262.234 80.1967 261.914 79.93C261.621 79.6633 260.927 79.4367 259.834 79.25L257.394 78.81V78.09H270.994V78.81L268.554 79.25C267.461 79.4367 266.754 79.6633 266.434 79.93C266.141 80.1967 265.994 80.7567 265.994 81.61V101.49C265.994 102.317 266.141 102.863 266.434 103.13C266.754 103.397 267.461 103.637 268.554 103.85L270.994 104.29V105.01H257.394ZM264.994 91.37L264.834 90.25H280.234L280.354 91.37H264.994ZM305.271 105.49C303.218 105.49 301.325 105.143 299.591 104.45C297.858 103.73 296.351 102.757 295.071 101.53C293.791 100.277 292.791 98.8367 292.071 97.21C291.378 95.5567 291.031 93.7967 291.031 91.93C291.031 89.8767 291.378 87.9967 292.071 86.29C292.791 84.5567 293.791 83.05 295.071 81.77C296.351 80.4633 297.858 79.4633 299.591 78.77C301.325 78.05 303.218 77.69 305.271 77.69C307.351 77.69 309.258 78.05 310.991 78.77C312.751 79.4633 314.271 80.45 315.551 81.73C316.831 82.9833 317.818 84.4367 318.511 86.09C319.231 87.7433 319.591 89.5167 319.591 91.41C319.591 93.41 319.231 95.2767 318.511 97.01C317.818 98.7167 316.831 100.21 315.551 101.49C314.271 102.743 312.751 103.73 310.991 104.45C309.258 105.143 307.351 105.49 305.271 105.49ZM305.271 104.41C307.298 104.41 309.085 103.85 310.631 102.73C312.178 101.583 313.391 100.037 314.271 98.09C315.151 96.1167 315.591 93.9033 315.591 91.45C315.591 89.13 315.151 87.0233 314.271 85.13C313.391 83.21 312.178 81.69 310.631 80.57C309.085 79.4233 307.298 78.85 305.271 78.85C303.298 78.85 301.538 79.4233 299.991 80.57C298.445 81.69 297.231 83.2367 296.351 85.21C295.471 87.1833 295.031 89.4233 295.031 91.93C295.031 93.6367 295.285 95.25 295.791 96.77C296.298 98.2633 297.005 99.5833 297.911 100.73C298.845 101.877 299.938 102.783 301.191 103.45C302.445 104.09 303.805 104.41 305.271 104.41ZM339.62 105.37L329.82 81.81L328.9 101.45C328.873 102.277 329.02 102.823 329.34 103.09C329.66 103.357 330.367 103.597 331.46 103.81L333.94 104.29V105.01H322.78V104.29L325.22 103.81C325.967 103.65 326.513 103.503 326.86 103.37C327.207 103.21 327.433 102.997 327.54 102.73C327.673 102.437 327.753 102.01 327.78 101.45L328.62 81.85C328.673 80.9967 328.527 80.3833 328.18 80.01C327.833 79.6367 327.127 79.3433 326.06 79.13L324.38 78.81V78.09H332.06L340.98 98.93L349.7 78.09H357.86V78.81L355.46 79.21C354.393 79.3967 353.687 79.6633 353.34 80.01C353.02 80.3567 352.873 80.9833 352.9 81.89L353.42 101.49C353.447 102.05 353.513 102.477 353.62 102.77C353.727 103.063 353.967 103.29 354.34 103.45C354.713 103.583 355.26 103.717 355.98 103.85L358.42 104.29V105.01H345.62V104.29L348.42 103.77C348.953 103.663 349.3 103.517 349.46 103.33C349.62 103.143 349.7 102.837 349.7 102.41L349.3 82.57L339.9 105.37H339.62ZM361.417 105.01V104.29L363.857 103.85C364.951 103.637 365.644 103.397 365.937 103.13C366.257 102.863 366.417 102.317 366.417 101.49V81.61C366.417 80.7567 366.257 80.1967 365.937 79.93C365.644 79.6633 364.951 79.4367 363.857 79.25L361.417 78.81V78.09H384.177C384.097 78.4633 384.031 78.8367 383.977 79.21C383.951 79.5833 383.937 79.9567 383.937 80.33C383.937 81.3167 384.017 82.2367 384.177 83.09C384.364 83.9167 384.497 84.61 384.577 85.17H383.777C383.377 83.9967 382.911 82.9567 382.377 82.05C381.871 81.1167 381.191 80.3833 380.337 79.85C379.484 79.3167 378.377 79.05 377.017 79.05H370.057V90.25H376.417C377.804 90.25 378.724 90.01 379.177 89.53C379.657 89.05 380.004 88.25 380.217 87.13L380.577 85.25H381.297V96.37H380.577L380.217 94.49C380.004 93.37 379.657 92.57 379.177 92.09C378.724 91.61 377.804 91.37 376.417 91.37H370.057V101.41C370.057 102.05 370.137 102.57 370.297 102.97C370.457 103.343 370.764 103.61 371.217 103.77C371.671 103.93 372.324 104.01 373.177 104.01H376.857C377.951 104.01 378.964 103.797 379.897 103.37C380.831 102.943 381.631 102.41 382.297 101.77C382.991 101.103 383.497 100.463 383.817 99.85L384.857 97.81H385.617C385.271 99.0367 385.017 100.29 384.857 101.57C384.697 102.823 384.604 103.97 384.577 105.01H361.417Z" fill="#E6C068"/>
</svg>
